# xmcd
#
# Track frame offsets: 
#        150
#        31417
#        57667
#        87525
#        121280
#        146212
#        184665
#        206050
#        230270
#
# Disc length: 3475 seconds
#
# Revision: 1
# Processed by: cddbd v1.5.2PL0 Copyright (c) Steve Scherf et al.
# Submitted via: ExactAudioCopy v1.1
#
DISCID=850d9109
DTITLE=Ray Bryant - Godfather
DYEAR=2002
DGENRE=Jazz
TTITLE0=2degrees East,3degrees West
TTITLE1=D&E
TTITLE2=March,Johnny,March
TTITLE3=Love Theme From Godfather
TTITLE4=Elevation Suite:Impressions - So What - Elevation
TTITLE5=Nardis
TTITLE6=Up Above The Rock
TTITLE7=Angel Eyes
TTITLE8=Broadway
EXTD=YEAR: 2003
EXTT0=
EXTT1=
EXTT2=
EXTT3=
EXTT4=
EXTT5=
EXTT6=
EXTT7=
EXTT8=
PLAYORDER=
